PathFileType	4	(X/Y/Z)	61_2_24_p1_0-199_filt_butterworth.trc
DataRate	CameraRate	NumFrames	NumMarkers	Units	OrigDataRate	OrigDataStartFrame	OrigNumFrames
41.0	41.0	6	27	m	41.0	24	199
Frame#	Time	RHip			RKnee			RAnkle			RBigToe			RSmallToe			RHeel			LHip			LKnee			LAnkle			LBigToe			LSmallToe			LHeel			Neck			Head			Nose			RShoulder			RElbow			RWrist			RThumb			RIndex			RPinky			LShoulder			LElbow			LWrist			LThumb			LIndex			LPinky			
		X1	Y1	Z1	X2	Y2	Z2	X3	Y3	Z3	X4	Y4	Z4	X5	Y5	Z5	X6	Y6	Z6	X7	Y7	Z7	X8	Y8	Z8	X9	Y9	Z9	X10	Y10	Z10	X11	Y11	Z11	X12	Y12	Z12	X13	Y13	Z13	X14	Y14	Z14	X15	Y15	Z15	X16	Y16	Z16	X17	Y17	Z17	X18	Y18	Z18	X19	Y19	Z19	X20	Y20	Z20	X21	Y21	Z21	X22	Y22	Z22	X23	Y23	Z23	X24	Y24	Z24	X25	Y25	Z25	X26	Y26	Z26	X27	Y27	Z27	
24	0.5853658536585366	0.3167978017317059	0.7293985393149988	0.8297127957583433	0.3211088582461399	0.2864086277488638	0.8856310388665708	0.2922230159246337	-0.1517121534420245	0.9435677719454463	0.29679197213490743	-0.1466104355647607	0.7000383623710354	0.35859353792445503	-0.1439590371451179	0.7386831229255904	0.2771683860891538	-0.2026654263850475	0.9764560047123718	0.1004263318830894	0.7079110224049225	0.8225673726234245	0.10527707959778401	0.2940927566137167	0.8526167906544208	0.11110709901831722	-0.11621865828924134	0.875820395382656	0.1440349313811839	-0.14942027255803153	0.7092358200764907	0.0723096387798291	-0.15475612803527403	0.7530348071812266	0.13672851401397035	-0.1864026738674517	0.9489582993234459	0.22026054266410858	1.2756758736349292	0.8129582998880116	0.2171784247108604	1.5257546558122796	0.7772439438870631	0.2178705407071967	1.3994923429572526	0.7237899304822669	0.3756922507239626	1.1784048688401907	0.8311781808138803	0.37059997740108275	0.9417793656858039	0.7709097492212618	0.28770892512519475	0.748617124951353	0.622289790774635	0.2120877704514436	0.6518681821835968	0.6119890717006309	0.21497225906651823	0.6296976963296792	0.6297144105101927	0.22813993969320154	0.6231121843066632	0.6601879461913871	0.06437296181192423	1.187417656311048	0.8228380381627645	0.057946670819770466	0.9385806905709795	0.7409695086856631	0.13961666945740614	0.7427823878004467	0.6429088499635357	0.22397017180502637	0.6710735659873333	0.6174612893690699	0.22070016262371317	0.6401067599540516	0.6290767928284935	0.2101593798582311	0.6333464876215175	0.6291269278201798	
25	0.6097560975609756	0.3162283153658451	0.7294151407423854	0.8308258856340306	0.3209598056911348	0.2869137794743545	0.8854696213878427	0.2923894616268703	-0.15168828593019862	0.9435484820741601	0.2967176411101613	-0.14646072875573632	0.7001289483122328	0.3592846516798818	-0.14410331948733276	0.7387763071335947	0.27726433967628744	-0.2028711482067846	0.9764339477200966	0.09974421674670948	0.7082140839620619	0.8237708668893284	0.10495018927715181	0.2935783463758729	0.852314143131635	0.1114214081040711	-0.11667788161012112	0.8758779214945153	0.14426349340898043	-0.1492010671760871	0.7086636928864156	0.07226136649335138	-0.15433131044967535	0.7531668797066989	0.13688245194026732	-0.18682527613376887	0.9491033175240244	0.2202615953800462	1.2756665889452488	0.8130044432720747	0.21718168947221977	1.525736668744891	0.777251197875332	0.2178909334324513	1.3988240184071308	0.7240254278252385	0.3760600468770961	1.178605890810939	0.8331912170485333	0.36959646003316127	0.9417614552265228	0.7703206197291842	0.28656303675642775	0.7498418766752661	0.6204752657243824	0.21181385999637609	0.6476321243735305	0.6175268759542443	0.21543881357281547	0.6295798431752825	0.6298732340452218	0.22675606980376728	0.6225251483184353	0.6597234114640333	0.06437420509088523	1.1874280557085355	0.8230213599833018	0.057930205137566165	0.9383385282735636	0.7408887641133912	0.13789969026002924	0.7430184497765157	0.642814225897677	0.22257231834264662	0.6682668676316168	0.6246479327796094	0.2200774125802863	0.6395587925103144	0.6319506481110129	0.21007019718215159	0.6343475671813574	0.6287268232305105	
26	0.6341463414634146	0.31566965170180045	0.7293800380165354	0.8320044437225896	0.32090854325379636	0.28727208196842846	0.8853786856231334	0.2925353921387083	-0.15172170091764192	0.9434476207261626	0.2964634349065358	-0.145881115851983	0.7003156524757173	0.3593222672513845	-0.14418576587046322	0.7391041144504222	0.27728269864058375	-0.20300220376550754	0.9764524310545042	0.0990787067105754	0.7084381388258771	0.8249861811970558	0.10466631395581635	0.29316620097179136	0.8521717227806621	0.11147413806074066	-0.11745915197480819	0.8764056800400459	0.14426618497227264	-0.14923253764262898	0.7086490386512911	0.07251231460656718	-0.1538623170812384	0.7524790120712262	0.13697641811832714	-0.1872394111375264	0.9493176458201643	0.220258296770926	1.275655589462196	0.8130553933771816	0.21718387714350845	1.5257237038892981	0.7772696469556946	0.21794693274517243	1.398293372509875	0.7242556384728864	0.3763247727582776	1.1783450890587361	0.8342852637441867	0.3687811033291058	0.9418479124668003	0.7698039139146929	0.2858641146742995	0.7505419080318633	0.6194134161198552	0.21199323811241583	0.6437070633703791	0.6214927511439907	0.21569313928227762	0.6294013384849213	0.6300187578540313	0.2258728176283683	0.6218812036468397	0.6596741744992826	0.06429119312679504	1.1875372793930072	0.8225987905746386	0.057870756913205465	0.9381556388955336	0.7409491069958001	0.13681932233131255	0.7429223362900774	0.6427922308208402	0.22141012369880492	0.6657772967065358	0.6314518540783378	0.22000796356460461	0.6390975546493705	0.6343734968704848	0.2101078549104451	0.6348849078724794	0.6288066400393938	
27	0.6585365853658537	0.3151640482603851	0.7292632374929088	0.8331492028039502	0.32084629416867394	0.2876231760632491	0.8852565201018839	0.2926517748919522	-0.15172358387856244	0.943352640213729	0.2960369420773015	-0.14488336802882326	0.7006273745349091	0.3587786380149655	-0.14390646592624995	0.7391450740257586	0.27720486424794144	-0.2029694390203767	0.9764709578325789	0.09847787324867384	0.7086493945187289	0.8261564624041211	0.10458009051536231	0.29286116776619686	0.8526476183059918	0.11134992277610777	-0.11838468721130015	0.8771644180805938	0.14372644806072343	-0.1499495442253222	0.7099070374936867	0.07266191464373259	-0.15375049135991534	0.7520306163259453	0.13696748478774257	-0.1875108093701868	0.9495543887434166	0.22025319306265545	1.2756393011826699	0.8131101049693181	0.2171825321400104	1.5257169984609291	0.777292360563722	0.21801784653334857	1.3979554517908719	0.7244762981508912	0.3764206965413323	1.177757970971556	0.8343020937359329	0.3683333608960199	0.9418890781157971	0.76957676096675	0.28576725535753894	0.7505774407686107	0.6193595924283478	0.21219210841200617	0.6416077436580789	0.6225474907904287	0.21558245518719737	0.6292408876587673	0.6301887975623554	0.2254252095964153	0.6213524081442148	0.6598698802868201	0.06423163225564608	1.1876110370535746	0.8223318967975739	0.0578442673143139	0.9381708293359605	0.7410236661980563	0.1363018641861511	0.7426100860854001	0.6428328905667406	0.22037250642899714	0.6645236234441128	0.6357427771142183	0.2202291489853282	0.6388939107540207	0.6358765578144212	0.21021283965889473	0.6349030778553221	0.6294039676348689	
28	0.6829268292682927	0.3147485722213852	0.7291134159731955	0.8341933723897674	0.3207735761612368	0.2879232714770335	0.8851473572627633	0.2927140933589775	-0.15168506423668204	0.9433623784439092	0.29566462283957107	-0.143862683232108	0.7010065934396176	0.35813595619618876	-0.1431000958675871	0.7390595732949607	0.2770879345668031	-0.2028095485650333	0.9762386471007509	0.09795743884967255	0.7090042898471791	0.8272478127535668	0.10479108824249767	0.2925851894872349	0.853636050708396	0.11122883078426522	-0.11923915678328813	0.877777083869701	0.14253258427405932	-0.15158905763830238	0.7126075648420782	0.07265001797851403	-0.1538524740990857	0.751975188828018	0.13684742779072487	-0.1876827719018223	0.9496617827725625	0.22024981474777516	1.2756237797275929	0.8131594557689608	0.21717890059770534	1.5257157623604816	0.7773155169487298	0.2179670403534881	1.397881389014098	0.7245316068349397	0.3763958741028087	1.1771659337690141	0.8337237773068586	0.368305849306232	0.9418505880907433	0.7696334224505517	0.28603274399840517	0.7502520233535723	0.6198872774169003	0.21222536489336052	0.6417515012662018	0.6213942369318131	0.21533848788426813	0.6292886480163873	0.6304375080029596	0.22511242866202003	0.6211040259062374	0.6599181235224695	0.06422385829109134	1.1876169349862555	0.8224082071812355	0.057835601596087305	0.9382073943886021	0.7411132489282173	0.13584082438235956	0.7422831984595846	0.6428680995658896	0.21914311527636038	0.6644331729531845	0.6375352827072822	0.22024082628747754	0.6390315400404323	0.6361715013280859	0.21042190543638212	0.6344575124847969	0.6306866179955808	
29	0.7073170731707317	0.3144245842772614	0.7289095329436981	0.8350426143301508	0.32070731670612296	0.28810888817041225	0.8850718764150487	0.2927089220520391	-0.15167134039698232	0.9434998695110826	0.2955341693765575	-0.14339291932989656	0.7012777398284624	0.35774870281539217	-0.1418946244507533	0.7390633917969581	0.27689746640105567	-0.20254681734467356	0.9757232611565819	0.09750377005744398	0.7093944875898692	0.8282384388986791	0.10513070558452853	0.29227910675172586	0.8544385498005865	0.11121894596790854	-0.11985565516047941	0.8780645459417337	0.14096018259348253	-0.15362883117195567	0.7161427489321679	0.07262999593538555	-0.15401162477174635	0.7519317864267521	0.13663751915638844	-0.18787228677957968	0.9495955547353319	0.22024869208615594	1.2756163906701088	0.8131956125932845	0.21717568569840656	1.5257188545441076	0.777332119473167	0.21776546509695666	1.398129626132693	0.7242047572938394	0.37638565922013156	1.1766902180458563	0.8332449579508148	0.36848683859644005	0.9418017642745863	0.7697854304433168	0.2862266139571756	0.7499928831244068	0.6202564768203921	0.21217448392939248	0.6429020413616777	0.6205377229748291	0.21512765447918095	0.6296252926734464	0.6307305107682586	0.22499505770405603	0.6211490633188775	0.659821867916756	0.06423402864061246	1.1876115821686017	0.8225520407658006	0.05782889607055333	0.9381912766084701	0.7412225131000869	0.1352794525417963	0.7420715494478383	0.6428844819235724	0.21784539612760911	0.6648598660913725	0.6383084224813671	0.2199027265134878	0.6392725891794819	0.6356921356593079	0.21083668744693745	0.6336547325532895	0.6325373871641826	
